<svg width="32" height="32" viewBox="0 0 32 32" fill="none" xmlns="http://www.w3.org/2000/svg">
<path d="M27.2505 11.4305C27.2652 11.8444 27.6127 12.168 28.0267 12.1533C28.4406 12.1386 28.7643 11.791 28.7495 11.3771L28 11.4038L27.2505 11.4305ZM21.1424 5.00378V5.75378C21.1508 5.75378 21.1591 5.75364 21.1675 5.75336L21.1424 5.00378ZM10.8576 5.00378L10.8325 5.75336C10.8409 5.75364 10.8492 5.75378 10.8576 5.75378V5.00378ZM3.25048 11.3771C3.23573 11.791 3.55936 12.1386 3.97331 12.1533C4.38726 12.168 4.73478 11.8444 4.74952 11.4305L4 11.4038L3.25048 11.3771ZM28.75 11.4037C28.75 10.9895 28.4142 10.6537 28 10.6537C27.5858 10.6537 27.25 10.9895 27.25 11.4037H28H28.75ZM28 21.0037L28.7495 21.0304C28.7498 21.0215 28.75 21.0126 28.75 21.0037H28ZM21.1424 27.4037L21.1675 26.6541C21.1591 26.6538 21.1508 26.6537 21.1424 26.6537V27.4037ZM10.8576 27.4037V26.6537C10.8492 26.6537 10.8409 26.6538 10.8325 26.6541L10.8576 27.4037ZM4 21.0037H3.25C3.25 21.0126 3.25016 21.0215 3.25048 21.0304L4 21.0037ZM4.75 11.4037C4.75 10.9895 4.41421 10.6537 4 10.6537C3.58579 10.6537 3.25 10.9895 3.25 11.4037H4H4.75ZM28.3783 12.0513C28.736 11.8424 28.8565 11.3831 28.6476 11.0254C28.4387 10.6677 27.9794 10.5472 27.6217 10.7561L28 11.4037L28.3783 12.0513ZM19.5776 16.3237L19.1993 15.6761L19.1931 15.6798L19.5776 16.3237ZM12.4224 16.3237L12.807 15.6798L12.8007 15.6761L12.4224 16.3237ZM4.3783 10.7561C4.02064 10.5472 3.56133 10.6677 3.3524 11.0254C3.14347 11.3831 3.26404 11.8424 3.6217 12.0513L4 11.4037L4.3783 10.7561ZM28 11.4038L28.7495 11.3771C28.6045 7.30458 25.1902 4.11807 21.1173 4.2542L21.1424 5.00378L21.1675 5.75336C24.4136 5.64486 27.1349 8.18459 27.2505 11.4305L28 11.4038ZM21.1424 5.00378V4.25378H10.8576V5.00378V5.75378H21.1424V5.00378ZM10.8576 5.00378L10.8827 4.2542C6.80984 4.11807 3.39549 7.30458 3.25048 11.3771L4 11.4038L4.74952 11.4305C4.86511 8.18459 7.58642 5.64486 10.8325 5.75336L10.8576 5.00378ZM28 11.4037H27.25V21.0037H28H28.75V11.4037H28ZM28 21.0037L27.2505 20.977C27.1349 24.2229 24.4136 26.7626 21.1675 26.6541L21.1424 27.4037L21.1173 28.1533C25.1902 28.2894 28.6045 25.1029 28.7495 21.0304L28 21.0037ZM21.1424 27.4037V26.6537H10.8576V27.4037V28.1537H21.1424V27.4037ZM10.8576 27.4037L10.8325 26.6541C7.58642 26.7626 4.86511 24.2229 4.74952 20.977L4 21.0037L3.25048 21.0304C3.39549 25.1029 6.80984 28.2894 10.8827 28.1533L10.8576 27.4037ZM4 21.0037H4.75V11.4037H4H3.25V21.0037H4ZM28 11.4037L27.6217 10.7561L19.1993 15.6761L19.5776 16.3237L19.9559 16.9713L28.3783 12.0513L28 11.4037ZM19.5776 16.3237L19.1931 15.6798C17.2264 16.8543 14.7736 16.8543 12.8069 15.6798L12.4224 16.3237L12.0379 16.9676C14.4783 18.425 17.5217 18.425 19.9621 16.9676L19.5776 16.3237ZM12.4224 16.3237L12.8007 15.6761L4.3783 10.7561L4 11.4037L3.6217 12.0513L12.0441 16.9713L12.4224 16.3237Z" fill="#0A102F"/>
</svg>
