<svg width="65" height="62" viewBox="0 0 65 62" fill="none" xmlns="http://www.w3.org/2000/svg">
<path d="M0.512528 19.5684C0.594131 18.5628 0.965461 17.5419 1.4343 16.5712C1.899 15.609 2.47731 14.6613 3.00546 13.7957L3.02155 13.7694C3.11203 13.6176 3.20009 13.4718 3.28514 13.3309C3.49602 12.9817 3.68845 12.6631 3.85344 12.3606L3.85388 12.3598C5.10935 10.068 6.46453 7.81599 7.89966 5.64331C8.78155 4.29575 9.90084 2.69727 11.5036 1.65302C11.9228 1.37737 12.4101 1.15145 12.9309 0.981391L12.9323 0.980928L12.9323 0.98093C13.2332 0.883683 13.6936 0.81293 14.2553 0.756557C14.829 0.698976 15.5471 0.653047 16.3858 0.616831C18.0639 0.544372 20.2457 0.509956 22.7618 0.501893C27.7948 0.485766 34.1863 0.575075 40.605 0.679162C41.4001 0.690727 42.1437 0.702274 42.8237 0.712834C44.4798 0.738552 45.7588 0.758414 46.4862 0.758414C46.8585 0.758414 47.2525 0.739302 47.6615 0.719352L47.6646 0.719201C47.7105 0.717258 47.7566 0.715268 47.8029 0.71327C48.6825 0.675304 49.6378 0.634074 50.562 0.784759L50.5638 0.785042C52.0744 1.03681 53.2976 1.88458 54.3265 2.93018C55.3513 3.97176 56.2187 5.24735 57.0021 6.40035L57.0046 6.404C57.4603 7.08759 57.8854 7.70507 58.286 8.20108L0.512528 19.5684ZM0.512528 19.5684C0.512537 19.5683 0.512545 19.5682 0.512554 19.5681L1.01086 19.6092L0.5125 19.5688C0.512509 19.5687 0.512519 19.5685 0.512528 19.5684ZM41.5125 18.8084C40.1548 16.651 38.7595 14.3794 37.4048 12.1569L41.5125 18.8084ZM41.5125 18.8084L24.5328 18.7459C25.9855 16.6512 27.3757 14.501 28.7152 12.4037L41.5125 18.8084ZM63.1479 16.4741L63.1477 16.4736L9.66576 32.8146L9.7793 32.9702C16.6441 42.3798 23.7392 52.105 31.9226 60.7026L31.5596 61.0465C31.5597 61.0465 31.5598 61.0466 31.5599 61.0467C31.8302 61.3319 32.2081 61.5 32.6067 61.5H32.6364H32.6457L32.6549 61.4997C33.0523 61.4849 33.4479 61.3092 33.7149 60.9826C39.6434 54.0111 45.2621 46.5655 50.673 39.3708L50.944 39.0108C53.3677 35.7919 55.86 32.4819 58.352 29.2642L58.3539 29.2618C58.6075 28.9301 58.8816 28.5874 59.169 28.2308L59.1711 28.228L59.212 28.1765C60.382 26.7031 61.8065 24.9092 62.721 22.9524C63.6512 20.9622 64.0829 18.7416 63.1479 16.4741ZM54.5983 8.03242L54.5989 8.03338L54.6513 8.11032C55.1142 8.79067 55.5672 9.45656 56.0329 10.0216C57.7742 12.1718 59.3458 14.8549 60.4686 17.569C60.6428 17.9951 60.7322 18.4274 60.7526 18.8694L46.0247 18.8147C47.0028 16.7327 47.9109 14.7118 48.7925 12.7499C48.8766 12.5629 48.9604 12.3763 49.044 12.1904L49.0442 12.1899C50.0775 9.8856 51.151 7.50144 52.3203 5.04196C53.1328 5.88451 53.8783 6.96924 54.5983 8.03242ZM23.5009 21.6287L41.8857 21.7027C40.3243 27.1018 38.5706 33.4208 36.8638 39.5711L36.8636 39.5718C35.4283 44.7726 33.9539 50.0901 32.5888 54.8606C31.3751 50.5659 29.7304 44.4997 28.0234 38.1766L28.0234 38.1765C26.4322 32.2854 24.7863 26.239 23.5009 21.6287ZM45.846 12.2817C45.1655 13.7903 44.4716 15.3289 43.7437 16.9001C42.4717 14.8708 41.1682 12.7357 39.8942 10.6446L39.8941 10.6444C38.4352 8.25161 36.9347 5.79987 35.4867 3.50623C36.9555 3.52775 38.3388 3.55248 39.5688 3.57447C39.9183 3.58072 40.2555 3.58675 40.5787 3.59242L40.5801 3.59245C41.3438 3.60359 42.0637 3.61476 42.727 3.62505C44.4186 3.65128 45.7421 3.67181 46.4862 3.67181C46.9163 3.67181 47.3629 3.65143 47.8136 3.62144C47.8448 3.61994 47.8758 3.61843 47.9068 3.61693C48.5957 3.58355 49.2452 3.55208 49.802 3.60795C48.5867 6.168 47.4794 8.63325 46.4168 11.0171C46.2273 11.4363 46.0372 11.8578 45.846 12.2817ZM12.7991 4.29221L19.3101 18.7297L3.67499 18.6753C4.07831 17.5973 4.81876 16.3728 5.4924 15.2697C5.81896 14.7353 6.13064 14.2227 6.39322 13.7581L6.39324 13.7581L6.39584 13.7534C7.61875 11.5344 8.94057 9.3445 10.3218 7.2332C11.0638 6.10198 11.8362 5.01997 12.7991 4.29221ZM27.1624 46.1045C27.9372 48.9442 28.796 52.0808 29.4404 54.404C26.1464 50.5635 22.0613 45.3293 18.6255 40.8171C16.6474 38.2192 14.8874 35.8645 13.6219 34.1592C12.9892 33.3066 12.4802 32.6165 12.1294 32.1396C11.954 31.9011 11.8182 31.716 11.7262 31.5905L11.6218 31.4478L11.5953 31.4116L11.5886 31.4024L11.5869 31.4002L11.5865 31.3996C11.5864 31.3995 11.5864 31.3994 11.183 31.694L11.5864 31.3994L11.5863 31.3992L10.3475 29.7047L10.347 29.7039L10.3469 29.7037C8.94019 27.7721 7.53154 25.8376 6.10276 23.9226C5.85074 23.5764 5.53036 23.2049 5.20739 22.833L5.19719 22.8209C4.85427 22.4157 4.49879 21.9956 4.19105 21.5796L20.4697 21.6346C21.3122 24.6305 22.2714 28.1532 23.3403 32.0787C23.9318 34.251 24.5569 36.5467 25.2144 38.9447L25.2147 38.9458L25.2167 38.953L25.2244 38.9815L25.2547 39.0931L25.3707 39.5207C25.4713 39.8911 25.6163 40.4251 25.7941 41.0795C26.1498 42.3883 26.6369 44.1785 27.1624 46.1045ZM44.8877 21.7166L60.0777 21.772C59.3203 23.3786 58.0608 24.9663 56.8933 26.4235C56.6901 26.6741 56.4943 26.9223 56.3072 27.1597C56.2189 27.2716 56.1326 27.381 56.0483 27.4872L56.0483 27.4871L56.0441 27.4925C53.817 30.3767 51.5825 33.3343 49.3993 36.224C49.0441 36.6942 48.6902 37.1627 48.3379 37.6287L48.3373 37.6295C44.3154 42.9713 40.1873 48.4257 35.9148 53.7213C37.1221 49.4604 38.3962 44.8675 39.6418 40.3533C41.4273 33.9005 43.2685 27.262 44.8877 21.7166ZM37.168 11.7696L37.4044 12.1563L28.7155 12.4032L28.741 12.3633C30.2078 10.0726 31.7088 7.72839 33.2944 5.48667C34.5683 7.51675 35.8799 9.66239 37.168 11.7696ZM26.2768 10.8435C24.8651 13.0503 23.4276 15.2953 21.9165 17.4563L15.6424 3.54367C17.4635 3.44231 20.3392 3.40413 23.6048 3.40413C26.0236 3.40413 28.6456 3.41975 31.2001 3.45099C29.4694 5.86838 27.8416 8.39338 26.2768 10.8435Z" fill="#1B1C1D" stroke="#1B1C1D"/>
</svg>
