<svg viewBox="0 0 336 165" fill="none" xmlns="http://www.w3.org/2000/svg">
<path d="M143.781 102.282C142.588 102.282 141.665 101.938 141.011 101.25C140.358 100.55 140.014 99.5757 139.979 98.3257L139.962 97.6376L139.979 96.9496C140.014 95.6996 140.358 94.7305 141.011 94.0425C141.665 93.3429 142.588 92.9932 143.781 92.9932C144.538 92.9932 145.18 93.1308 145.707 93.406C146.246 93.6698 146.648 94.0138 146.911 94.4381C147.175 94.8509 147.319 95.281 147.342 95.7282C147.353 95.8315 147.319 95.9232 147.238 96.0035C147.158 96.0723 147.066 96.1067 146.963 96.1067H146.722C146.608 96.1067 146.522 96.0837 146.464 96.0379C146.418 95.9805 146.367 95.8831 146.309 95.7454C146.08 95.1147 145.759 94.6675 145.346 94.4037C144.933 94.1285 144.411 93.9909 143.781 93.9909C142.955 93.9909 142.296 94.2432 141.803 94.7477C141.321 95.2409 141.063 96.0035 141.028 97.0356L141.011 97.6376L141.028 98.2397C141.063 99.2718 141.321 100.04 141.803 100.545C142.296 101.038 142.955 101.284 143.781 101.284C144.411 101.284 144.933 101.153 145.346 100.889C145.759 100.614 146.08 100.161 146.309 99.5298C146.367 99.3922 146.418 99.3005 146.464 99.2546C146.522 99.1973 146.608 99.1686 146.722 99.1686H146.963C147.066 99.1686 147.158 99.2087 147.238 99.289C147.319 99.3578 147.353 99.4438 147.342 99.5471C147.319 99.9943 147.175 100.43 146.911 100.854C146.648 101.267 146.246 101.611 145.707 101.887C145.18 102.15 144.538 102.282 143.781 102.282Z" fill="#5B5E67"/>
<path d="M152.934 102.282C151.845 102.282 150.968 101.927 150.303 101.216C149.637 100.493 149.259 99.5298 149.167 98.3257L149.15 97.6376L149.167 96.9496C149.259 95.7569 149.632 94.7993 150.285 94.0769C150.95 93.3544 151.833 92.9932 152.934 92.9932C154.127 92.9932 155.056 93.3888 155.721 94.1801C156.398 94.9714 156.736 96.0551 156.736 97.4312V97.6893C156.736 97.8039 156.696 97.8957 156.616 97.9645C156.547 98.0333 156.455 98.0677 156.34 98.0677H150.216V98.2397C150.239 98.7787 150.36 99.2833 150.578 99.7535C150.807 100.212 151.122 100.585 151.524 100.872C151.925 101.147 152.395 101.284 152.934 101.284C153.565 101.284 154.075 101.164 154.465 100.923C154.867 100.671 155.153 100.419 155.325 100.166C155.429 100.029 155.503 99.9427 155.549 99.9083C155.606 99.8739 155.704 99.8567 155.841 99.8567H156.117C156.22 99.8567 156.306 99.8854 156.375 99.9427C156.444 100 156.478 100.075 156.478 100.166C156.478 100.407 156.323 100.7 156.014 101.044C155.715 101.376 155.297 101.669 154.758 101.921C154.219 102.162 153.611 102.282 152.934 102.282ZM155.687 97.1044V97.0356C155.687 96.1526 155.434 95.4243 154.93 94.851C154.437 94.2776 153.772 93.9909 152.934 93.9909C152.097 93.9909 151.432 94.2776 150.939 94.851C150.457 95.4243 150.216 96.1526 150.216 97.0356V97.1044H155.687Z" fill="#5B5E67"/>
<path d="M159.401 105.378C159.286 105.378 159.194 105.344 159.125 105.275C159.056 105.206 159.022 105.115 159.022 105V93.5436C159.022 93.4289 159.056 93.3372 159.125 93.2684C159.194 93.1996 159.286 93.1652 159.401 93.1652H159.693C159.808 93.1652 159.899 93.1996 159.968 93.2684C160.037 93.3372 160.071 93.4289 160.071 93.5436V94.3521C160.737 93.4461 161.7 92.9932 162.961 92.9932C164.2 92.9932 165.112 93.3888 165.696 94.1801C166.293 94.9599 166.608 95.9232 166.642 97.07C166.654 97.1847 166.66 97.3739 166.66 97.6376C166.66 97.9014 166.654 98.0906 166.642 98.2053C166.608 99.3521 166.293 100.321 165.696 101.112C165.112 101.892 164.2 102.282 162.961 102.282C161.711 102.282 160.748 101.829 160.071 100.923V105C160.071 105.115 160.037 105.206 159.968 105.275C159.899 105.344 159.808 105.378 159.693 105.378H159.401ZM162.858 101.284C163.787 101.284 164.464 100.992 164.888 100.407C165.324 99.8108 165.559 99.0482 165.593 98.1193C165.605 98.0046 165.61 97.8441 165.61 97.6376C165.61 96.5711 165.404 95.6996 164.991 95.023C164.578 94.3349 163.867 93.9909 162.858 93.9909C161.952 93.9909 161.27 94.2948 160.811 94.9026C160.352 95.4989 160.106 96.2042 160.071 97.0184L160.054 97.6893L160.071 98.3601C160.083 98.8532 160.192 99.3234 160.398 99.7707C160.605 100.206 160.914 100.568 161.327 100.854C161.74 101.141 162.25 101.284 162.858 101.284Z" fill="#5B5E67"/>
<path d="M169.379 102.11C169.264 102.11 169.172 102.076 169.103 102.007C169.034 101.938 169 101.846 169 101.732V93.5436C169 93.4289 169.034 93.3372 169.103 93.2684C169.172 93.1996 169.264 93.1652 169.379 93.1652H172.767C173.696 93.1652 174.419 93.3773 174.935 93.8016C175.462 94.226 175.726 94.7936 175.726 95.5046C175.726 96.0207 175.629 96.4163 175.434 96.6915C175.25 96.9668 174.946 97.2019 174.522 97.3968C174.958 97.5574 175.296 97.8498 175.537 98.2741C175.778 98.6984 175.898 99.1457 175.898 99.6159C175.898 100.419 175.623 101.038 175.072 101.474C174.533 101.898 173.794 102.11 172.853 102.11H169.379ZM172.595 97.1044C173.226 97.1044 173.731 96.961 174.109 96.6743C174.487 96.3876 174.677 95.9977 174.677 95.5046C174.677 95.023 174.493 94.6789 174.126 94.4725C173.771 94.2661 173.26 94.1629 172.595 94.1629H170.049V97.1044H172.595ZM172.716 101.112C173.369 101.112 173.885 100.986 174.264 100.734C174.654 100.47 174.849 100.098 174.849 99.6159C174.849 99.0998 174.671 98.7214 174.315 98.4805C173.971 98.2282 173.438 98.1021 172.716 98.1021H170.049V101.112H172.716Z" fill="#5B5E67"/>
<path d="M185.445 93.1652C185.537 93.1652 185.617 93.1996 185.686 93.2684C185.755 93.3372 185.789 93.4117 185.789 93.492V101.732C185.789 101.846 185.755 101.938 185.686 102.007C185.617 102.076 185.525 102.11 185.411 102.11H185.118C185.003 102.11 184.912 102.076 184.843 102.007C184.774 101.938 184.74 101.846 184.74 101.732V94.9198L179.441 101.852C179.315 102.024 179.166 102.11 178.994 102.11H178.667C178.576 102.11 178.495 102.076 178.427 102.007C178.358 101.938 178.323 101.858 178.323 101.766V93.5436C178.323 93.4289 178.358 93.3372 178.427 93.2684C178.495 93.1996 178.587 93.1652 178.702 93.1652H178.994C179.109 93.1652 179.201 93.1996 179.269 93.2684C179.338 93.3372 179.373 93.4289 179.373 93.5436V100.356L184.671 93.4232C184.797 93.2512 184.946 93.1652 185.118 93.1652H185.445Z" fill="#5B5E67"/>
<path d="M191.959 102.282C190.767 102.282 189.843 101.938 189.19 101.25C188.536 100.55 188.192 99.5757 188.158 98.3257L188.14 97.6376L188.158 96.9496C188.192 95.6996 188.536 94.7305 189.19 94.0425C189.843 93.3429 190.767 92.9932 191.959 92.9932C192.716 92.9932 193.358 93.1308 193.886 93.406C194.425 93.6698 194.826 94.0138 195.09 94.4381C195.354 94.8509 195.497 95.281 195.52 95.7282C195.532 95.8315 195.497 95.9232 195.417 96.0035C195.337 96.0723 195.245 96.1067 195.142 96.1067H194.901C194.786 96.1067 194.7 96.0837 194.643 96.0379C194.597 95.9805 194.545 95.8831 194.488 95.7454C194.259 95.1147 193.938 94.6675 193.525 94.4037C193.112 94.1285 192.59 93.9909 191.959 93.9909C191.134 93.9909 190.474 94.2432 189.981 94.7477C189.499 95.2409 189.241 96.0035 189.207 97.0356L189.19 97.6376L189.207 98.2397C189.241 99.2718 189.499 100.04 189.981 100.545C190.474 101.038 191.134 101.284 191.959 101.284C192.59 101.284 193.112 101.153 193.525 100.889C193.938 100.614 194.259 100.161 194.488 99.5298C194.545 99.3922 194.597 99.3005 194.643 99.2546C194.7 99.1973 194.786 99.1686 194.901 99.1686H195.142C195.245 99.1686 195.337 99.2087 195.417 99.289C195.497 99.3578 195.532 99.4438 195.52 99.5471C195.497 99.9943 195.354 100.43 195.09 100.854C194.826 101.267 194.425 101.611 193.886 101.887C193.358 102.15 192.716 102.282 191.959 102.282Z" fill="#5B5E67"/>
<path d="M208.747 105.378C208.633 105.378 208.541 105.344 208.472 105.275C208.403 105.206 208.369 105.115 208.369 105V100.923C207.692 101.829 206.729 102.282 205.479 102.282C204.24 102.282 203.323 101.892 202.727 101.112C202.142 100.321 201.832 99.3521 201.798 98.2053L201.781 97.6376L201.798 97.07C201.832 95.9232 202.142 94.9599 202.727 94.1801C203.323 93.3888 204.24 92.9932 205.479 92.9932C206.74 92.9932 207.704 93.4461 208.369 94.3521V93.5436C208.369 93.4289 208.403 93.3372 208.472 93.2684C208.541 93.1996 208.633 93.1652 208.747 93.1652H209.04C209.154 93.1652 209.246 93.1996 209.315 93.2684C209.384 93.3372 209.418 93.4289 209.418 93.5436V105C209.418 105.115 209.384 105.206 209.315 105.275C209.246 105.344 209.154 105.378 209.04 105.378H208.747ZM205.582 101.284C206.19 101.284 206.7 101.141 207.113 100.854C207.526 100.568 207.836 100.206 208.042 99.7707C208.248 99.3234 208.357 98.8532 208.369 98.3601C208.38 98.2454 208.386 98.0218 208.386 97.6893C208.386 97.3567 208.38 97.1331 208.369 97.0184C208.335 96.2042 208.088 95.4989 207.629 94.9026C207.171 94.2948 206.488 93.9909 205.582 93.9909C204.653 93.9909 203.971 94.289 203.535 94.8854C203.111 95.4702 202.882 96.2271 202.847 97.156L202.83 97.6376C202.83 98.7042 203.036 99.5815 203.449 100.27C203.862 100.946 204.573 101.284 205.582 101.284Z" fill="#5B5E67"/>
<path d="M212.601 102.11C212.487 102.11 212.395 102.076 212.326 102.007C212.257 101.938 212.223 101.846 212.223 101.732V93.5608C212.223 93.4461 212.257 93.3544 212.326 93.2856C212.395 93.2053 212.487 93.1652 212.601 93.1652H212.877C212.991 93.1652 213.083 93.2053 213.152 93.2856C213.232 93.3544 213.272 93.4461 213.272 93.5608V94.3521C213.685 93.5608 214.465 93.1652 215.612 93.1652H216.248C216.363 93.1652 216.455 93.1996 216.524 93.2684C216.592 93.3372 216.627 93.4289 216.627 93.5436V93.7844C216.627 93.8991 216.592 93.9909 216.524 94.0597C216.455 94.1285 216.363 94.1629 216.248 94.1629H215.509C214.821 94.1629 214.276 94.3636 213.874 94.7649C213.473 95.1663 213.272 95.711 213.272 96.3991V101.732C213.272 101.846 213.232 101.938 213.152 102.007C213.083 102.076 212.991 102.11 212.877 102.11H212.601Z" fill="#5B5E67"/>
<path d="M222.597 102.11C222.482 102.11 222.39 102.076 222.321 102.007C222.253 101.938 222.218 101.846 222.218 101.732V93.5436C222.218 93.4289 222.253 93.3372 222.321 93.2684C222.39 93.1996 222.482 93.1652 222.597 93.1652H228.961C229.076 93.1652 229.168 93.1996 229.237 93.2684C229.305 93.3372 229.34 93.4289 229.34 93.5436V101.732C229.34 101.846 229.305 101.938 229.237 102.007C229.168 102.076 229.076 102.11 228.961 102.11H228.669C228.554 102.11 228.463 102.076 228.394 102.007C228.325 101.938 228.291 101.846 228.291 101.732V94.1629H223.268V101.732C223.268 101.846 223.233 101.938 223.164 102.007C223.096 102.076 223.004 102.11 222.889 102.11H222.597Z" fill="#5B5E67"/>
<path d="M231.562 102.11C231.447 102.11 231.35 102.076 231.269 102.007C231.201 101.927 231.166 101.829 231.166 101.714V101.439C231.166 101.336 231.195 101.25 231.252 101.181C231.321 101.112 231.407 101.078 231.51 101.078C232.095 101.078 232.542 100.654 232.852 99.8051C233.162 98.9565 233.316 97.5746 233.316 95.6594V93.5436C233.316 93.4289 233.351 93.3372 233.42 93.2684C233.488 93.1996 233.58 93.1652 233.695 93.1652H238.615C238.729 93.1652 238.821 93.1996 238.89 93.2684C238.959 93.3372 238.993 93.4289 238.993 93.5436V101.732C238.993 101.846 238.959 101.938 238.89 102.007C238.821 102.076 238.729 102.11 238.615 102.11H238.322C238.207 102.11 238.116 102.076 238.047 102.007C237.978 101.938 237.944 101.846 237.944 101.732V94.1629H234.366V95.7798C234.366 100 233.431 102.11 231.562 102.11Z" fill="#5B5E67"/>
<path d="M244.18 102.282C243.63 102.282 243.119 102.167 242.649 101.938C242.179 101.709 241.801 101.399 241.514 101.009C241.239 100.619 241.101 100.189 241.101 99.7191C241.101 98.9622 241.405 98.3429 242.013 97.8613C242.632 97.3796 243.463 97.07 244.507 96.9324L247.225 96.5539V95.9519C247.225 95.3211 247.03 94.8395 246.64 94.5069C246.262 94.1629 245.677 93.9909 244.885 93.9909C244.301 93.9909 243.819 94.1055 243.44 94.3349C243.074 94.5643 242.838 94.8395 242.735 95.1606C242.689 95.2982 242.632 95.3957 242.563 95.453C242.506 95.4989 242.426 95.5218 242.322 95.5218H242.082C241.978 95.5218 241.887 95.4874 241.806 95.4186C241.738 95.3383 241.703 95.2466 241.703 95.1434C241.703 94.8911 241.818 94.5987 242.047 94.2661C242.276 93.9221 242.632 93.6239 243.114 93.3716C243.595 93.1193 244.186 92.9932 244.885 92.9932C246.112 92.9932 246.984 93.2856 247.5 93.8704C248.016 94.4553 248.274 95.1663 248.274 96.0035V101.732C248.274 101.846 248.24 101.938 248.171 102.007C248.102 102.076 248.01 102.11 247.896 102.11H247.603C247.489 102.11 247.397 102.076 247.328 102.007C247.259 101.938 247.225 101.846 247.225 101.732V100.923C246.973 101.302 246.6 101.623 246.107 101.887C245.625 102.15 244.983 102.282 244.18 102.282ZM244.352 101.284C245.189 101.284 245.877 101.009 246.416 100.459C246.955 99.9083 247.225 99.117 247.225 98.0849V97.5L245.006 97.8097C244.065 97.9358 243.354 98.1537 242.873 98.4633C242.391 98.773 242.15 99.1629 242.15 99.6331C242.15 100.161 242.368 100.568 242.804 100.854C243.251 101.141 243.767 101.284 244.352 101.284Z" fill="#5B5E67"/>
<path d="M253.729 102.11C253.615 102.11 253.523 102.076 253.454 102.007C253.385 101.938 253.351 101.846 253.351 101.732V94.1629H250.203C250.088 94.1629 249.997 94.1285 249.928 94.0597C249.859 93.9909 249.825 93.8991 249.825 93.7844V93.5436C249.825 93.4289 249.859 93.3372 249.928 93.2684C249.997 93.1996 250.088 93.1652 250.203 93.1652H257.548C257.663 93.1652 257.755 93.1996 257.824 93.2684C257.892 93.3372 257.927 93.4289 257.927 93.5436V93.7844C257.927 93.8991 257.892 93.9909 257.824 94.0597C257.755 94.1285 257.663 94.1629 257.548 94.1629H254.4V101.732C254.4 101.846 254.366 101.938 254.297 102.007C254.228 102.076 254.137 102.11 254.022 102.11H253.729Z" fill="#5B5E67"/>
<path d="M262.865 102.282C261.775 102.282 260.898 101.927 260.233 101.216C259.568 100.493 259.189 99.5298 259.098 98.3257L259.08 97.6376L259.098 96.9496C259.189 95.7569 259.562 94.7993 260.216 94.0769C260.881 93.3544 261.764 92.9932 262.865 92.9932C264.058 92.9932 264.986 93.3888 265.652 94.1801C266.328 94.9714 266.666 96.0551 266.666 97.4312V97.6893C266.666 97.8039 266.626 97.8957 266.546 97.9645C266.477 98.0333 266.385 98.0677 266.271 98.0677H260.147V98.2397C260.17 98.7787 260.29 99.2833 260.508 99.7535C260.738 100.212 261.053 100.585 261.454 100.872C261.856 101.147 262.326 101.284 262.865 101.284C263.496 101.284 264.006 101.164 264.396 100.923C264.797 100.671 265.084 100.419 265.256 100.166C265.359 100.029 265.434 99.9427 265.48 99.9083C265.537 99.8739 265.634 99.8567 265.772 99.8567H266.047C266.15 99.8567 266.236 99.8854 266.305 99.9427C266.374 100 266.408 100.075 266.408 100.166C266.408 100.407 266.254 100.7 265.944 101.044C265.646 101.376 265.227 101.669 264.688 101.921C264.149 102.162 263.541 102.282 262.865 102.282ZM265.617 97.1044V97.0356C265.617 96.1526 265.365 95.4243 264.86 94.851C264.367 94.2776 263.702 93.9909 262.865 93.9909C262.028 93.9909 261.363 94.2776 260.869 94.851C260.388 95.4243 260.147 96.1526 260.147 97.0356V97.1044H265.617Z" fill="#5B5E67"/>
<path d="M279.91 101.646C279.967 101.714 279.996 101.789 279.996 101.869C279.996 102.03 279.887 102.11 279.669 102.11H279.222C279.05 102.11 278.901 102.03 278.775 101.869L276.057 98.0333H274.526V101.732C274.526 101.846 274.492 101.938 274.423 102.007C274.354 102.076 274.262 102.11 274.148 102.11H273.855C273.74 102.11 273.649 102.076 273.58 102.007C273.511 101.938 273.477 101.846 273.477 101.732V98.0333H271.946L269.193 101.869C269.09 102.03 268.941 102.11 268.746 102.11H268.299C268.081 102.11 267.972 102.03 267.972 101.869C267.972 101.812 268.001 101.737 268.058 101.646L271.068 97.414L268.385 93.6124C268.339 93.5321 268.316 93.4633 268.316 93.406C268.316 93.2454 268.425 93.1652 268.643 93.1652H268.987C269.159 93.1652 269.308 93.2512 269.434 93.4232L271.963 97.0356H273.477V93.5436C273.477 93.4289 273.511 93.3372 273.58 93.2684C273.649 93.1996 273.74 93.1652 273.855 93.1652H274.148C274.262 93.1652 274.354 93.1996 274.423 93.2684C274.492 93.3372 274.526 93.4289 274.526 93.5436V97.0356H275.971L278.534 93.4232C278.66 93.2512 278.809 93.1652 278.981 93.1652H279.325C279.428 93.1652 279.509 93.1881 279.566 93.234C279.635 93.2684 279.669 93.3257 279.669 93.406C279.669 93.4519 279.641 93.5207 279.583 93.6124L276.9 97.414L279.91 101.646Z" fill="#5B5E67"/>
<path d="M285.14 102.282C284.05 102.282 283.173 101.927 282.508 101.216C281.843 100.493 281.464 99.5298 281.373 98.3257L281.355 97.6376L281.373 96.9496C281.464 95.7569 281.837 94.7993 282.491 94.0769C283.156 93.3544 284.039 92.9932 285.14 92.9932C286.333 92.9932 287.261 93.3888 287.927 94.1801C288.603 94.9714 288.941 96.0551 288.941 97.4312V97.6893C288.941 97.8039 288.901 97.8957 288.821 97.9645C288.752 98.0333 288.661 98.0677 288.546 98.0677H282.422V98.2397C282.445 98.7787 282.565 99.2833 282.783 99.7535C283.013 100.212 283.328 100.585 283.729 100.872C284.131 101.147 284.601 101.284 285.14 101.284C285.771 101.284 286.281 101.164 286.671 100.923C287.072 100.671 287.359 100.419 287.531 100.166C287.634 100.029 287.709 99.9427 287.755 99.9083C287.812 99.8739 287.909 99.8567 288.047 99.8567H288.322C288.425 99.8567 288.511 99.8854 288.58 99.9427C288.649 100 288.683 100.075 288.683 100.166C288.683 100.407 288.529 100.7 288.219 101.044C287.921 101.376 287.502 101.669 286.963 101.921C286.424 102.162 285.816 102.282 285.14 102.282ZM287.892 97.1044V97.0356C287.892 96.1526 287.64 95.4243 287.135 94.851C286.642 94.2776 285.977 93.9909 285.14 93.9909C284.303 93.9909 283.638 94.2776 283.144 94.851C282.663 95.4243 282.422 96.1526 282.422 97.0356V97.1044H287.892Z" fill="#5B5E67"/>
<path d="M298.332 93.1652C298.424 93.1652 298.504 93.1996 298.573 93.2684C298.642 93.3372 298.676 93.4117 298.676 93.492V101.732C298.676 101.846 298.642 101.938 298.573 102.007C298.504 102.076 298.412 102.11 298.298 102.11H298.005C297.89 102.11 297.799 102.076 297.73 102.007C297.661 101.938 297.627 101.846 297.627 101.732V94.9198L292.328 101.852C292.202 102.024 292.053 102.11 291.881 102.11H291.554C291.463 102.11 291.382 102.076 291.314 102.007C291.245 101.938 291.21 101.858 291.21 101.766V93.5436C291.21 93.4289 291.245 93.3372 291.314 93.2684C291.382 93.1996 291.474 93.1652 291.589 93.1652H291.881C291.996 93.1652 292.088 93.1996 292.156 93.2684C292.225 93.3372 292.26 93.4289 292.26 93.5436V100.356L297.558 93.4232C297.684 93.2512 297.833 93.1652 298.005 93.1652H298.332ZM294.943 91.961C294.06 91.961 293.435 91.7718 293.068 91.3934C292.713 91.0149 292.535 90.539 292.535 89.9656C292.535 89.8739 292.564 89.7993 292.621 89.742C292.678 89.6732 292.759 89.6388 292.862 89.6388H293.12C293.223 89.6388 293.303 89.6732 293.361 89.742C293.418 89.7993 293.447 89.8739 293.447 89.9656C293.447 90.2867 293.556 90.5562 293.773 90.7741C294.003 90.992 294.393 91.1009 294.943 91.1009C295.494 91.1009 295.878 90.992 296.096 90.7741C296.325 90.5562 296.44 90.2867 296.44 89.9656C296.44 89.8739 296.468 89.7993 296.526 89.742C296.583 89.6732 296.663 89.6388 296.767 89.6388H297.025C297.128 89.6388 297.208 89.6732 297.265 89.742C297.323 89.7993 297.351 89.8739 297.351 89.9656C297.351 90.539 297.168 91.0149 296.801 91.3934C296.445 91.7718 295.826 91.961 294.943 91.961Z" fill="#5B5E67"/>
<path d="M148.537 79.7477C146.174 79.7477 144.282 79.0252 142.86 77.5803C141.461 76.1124 140.693 74.117 140.555 71.5941L140.521 70.4243L140.555 69.289C140.715 66.8119 141.495 64.8395 142.894 63.3716C144.316 61.9037 146.186 61.1697 148.502 61.1697C151.048 61.1697 153.021 61.984 154.42 63.6124C155.819 65.2179 156.518 67.3968 156.518 70.1491V70.734C156.518 70.9633 156.438 71.1583 156.277 71.3188C156.14 71.4564 155.956 71.5252 155.727 71.5252H143.823V71.8349C143.892 73.3257 144.339 74.5986 145.165 75.6537C146.014 76.6858 147.126 77.2018 148.502 77.2018C149.557 77.2018 150.417 76.9954 151.082 76.5826C151.771 76.1468 152.275 75.6996 152.596 75.2408C152.803 74.9656 152.952 74.8051 153.043 74.7592C153.158 74.6904 153.353 74.656 153.628 74.656H155.314C155.521 74.656 155.693 74.7133 155.83 74.828C155.968 74.9427 156.037 75.1032 156.037 75.3096C156.037 75.8142 155.715 76.422 155.073 77.133C154.454 77.844 153.571 78.4633 152.424 78.9908C151.3 79.4954 150.004 79.7477 148.537 79.7477ZM153.25 69.1514V69.0482C153.25 67.4656 152.814 66.1812 151.943 65.195C151.094 64.1858 149.947 63.6812 148.502 63.6812C147.057 63.6812 145.91 64.1858 145.062 65.195C144.236 66.1812 143.823 67.4656 143.823 69.0482V69.1514H153.25Z" fill="black"/>
<path d="M161.458 85.9404C161.228 85.9404 161.033 85.8601 160.873 85.6996C160.735 85.5619 160.666 85.3785 160.666 85.1491V62.3051C160.666 62.0757 160.735 61.8922 160.873 61.7546C161.033 61.5941 161.228 61.5138 161.458 61.5138H163.04C163.269 61.5138 163.453 61.5941 163.591 61.7546C163.751 61.8922 163.831 62.0757 163.831 62.3051V63.8188C165.116 62.0528 166.997 61.1697 169.474 61.1697C171.882 61.1697 173.682 61.9266 174.875 63.4404C176.091 64.9541 176.744 66.9037 176.836 69.289C176.859 69.5413 176.87 69.9312 176.87 70.4587C176.87 70.9863 176.859 71.3762 176.836 71.6285C176.744 73.9908 176.091 75.9404 174.875 77.4771C173.659 78.9908 171.859 79.7477 169.474 79.7477C167.088 79.7477 165.23 78.8876 163.9 77.1674V85.1491C163.9 85.3785 163.831 85.5619 163.694 85.6996C163.556 85.8601 163.373 85.9404 163.143 85.9404H161.458ZM168.751 76.961C170.38 76.961 171.561 76.4564 172.295 75.4473C173.052 74.4381 173.464 73.1078 173.533 71.4564C173.556 71.2271 173.568 70.8945 173.568 70.4587C173.568 66.1239 171.962 63.9564 168.751 63.9564C167.169 63.9564 165.976 64.484 165.173 65.539C164.393 66.5711 163.969 67.8096 163.9 69.2546L163.866 70.5619L163.9 71.9037C163.946 73.2569 164.382 74.4381 165.208 75.4473C166.033 76.4564 167.214 76.961 168.751 76.961Z" fill="black"/>
<path d="M188.454 79.7477C185.931 79.7477 183.97 79.0367 182.571 77.6147C181.195 76.1927 180.461 74.3005 180.369 71.9381L180.335 70.4587L180.369 68.9794C180.461 66.6399 181.207 64.7592 182.606 63.3372C184.005 61.8922 185.954 61.1697 188.454 61.1697C190.954 61.1697 192.904 61.8922 194.303 63.3372C195.702 64.7592 196.447 66.6399 196.539 68.9794C196.562 69.2317 196.573 69.7248 196.573 70.4587C196.573 71.1927 196.562 71.6858 196.539 71.9381C196.447 74.3005 195.702 76.1927 194.303 77.6147C192.927 79.0367 190.977 79.7477 188.454 79.7477ZM188.454 77.0986C189.899 77.0986 191.034 76.6399 191.86 75.7225C192.709 74.8051 193.168 73.4863 193.236 71.7661C193.259 71.5367 193.271 71.1009 193.271 70.4587C193.271 69.8165 193.259 69.3807 193.236 69.1514C193.168 67.4312 192.709 66.1124 191.86 65.195C191.034 64.2775 189.899 63.8188 188.454 63.8188C187.009 63.8188 185.862 64.2775 185.014 65.195C184.165 66.1124 183.718 67.4312 183.672 69.1514L183.638 70.4587L183.672 71.7661C183.718 73.4863 184.165 74.8051 185.014 75.7225C185.862 76.6399 187.009 77.0986 188.454 77.0986Z" fill="black"/>
<path d="M207.074 79.7477C205.469 79.7477 204.115 79.4954 203.014 78.9908C201.937 78.4633 201.122 77.867 200.572 77.2018C200.044 76.5367 199.781 75.9863 199.781 75.5505C199.781 75.3211 199.861 75.1491 200.021 75.0344C200.205 74.8968 200.388 74.828 200.572 74.828H202.12C202.349 74.828 202.556 74.9427 202.739 75.172C203.29 75.8142 203.886 76.3188 204.528 76.6858C205.17 77.0528 206.031 77.2363 207.109 77.2363C208.301 77.2363 209.264 77.0069 209.998 76.5482C210.755 76.0665 211.134 75.4129 211.134 74.5872C211.134 74.0367 210.973 73.5895 210.652 73.2454C210.354 72.8785 209.826 72.5688 209.07 72.3165C208.336 72.0413 207.235 71.7431 205.767 71.422C203.771 70.9863 202.349 70.3555 201.501 69.5298C200.675 68.7041 200.262 67.6376 200.262 66.3303C200.262 65.4587 200.514 64.633 201.019 63.8532C201.547 63.0505 202.303 62.4083 203.29 61.9266C204.299 61.422 205.503 61.1697 206.902 61.1697C208.37 61.1697 209.62 61.4106 210.652 61.8922C211.684 62.3739 212.453 62.9473 212.957 63.6124C213.485 64.2546 213.748 64.7936 213.748 65.2294C213.748 65.4358 213.668 65.6078 213.508 65.7454C213.37 65.883 213.198 65.9518 212.992 65.9518H211.547C211.271 65.9518 211.042 65.8372 210.859 65.6078C210.492 65.172 210.17 64.8395 209.895 64.6101C209.643 64.3578 209.264 64.1399 208.76 63.9564C208.278 63.773 207.659 63.6812 206.902 63.6812C205.801 63.6812 204.953 63.922 204.356 64.4037C203.76 64.8624 203.462 65.4702 203.462 66.2271C203.462 66.7087 203.588 67.1216 203.84 67.4656C204.092 67.7867 204.574 68.0849 205.285 68.3601C206.019 68.6353 207.074 68.922 208.45 69.2202C210.629 69.6789 212.166 70.3441 213.06 71.2156C213.978 72.0642 214.437 73.1537 214.437 74.484C214.437 75.4702 214.15 76.3647 213.576 77.1674C213.003 77.9702 212.154 78.6009 211.031 79.0596C209.93 79.5184 208.611 79.7477 207.074 79.7477Z" fill="black"/>
<path d="M57.5752 58.2353C58.3083 58.2353 58.9027 58.8279 58.9027 59.5588V65.7353C58.9027 66.4663 58.3083 67.0588 57.5752 67.0588H51.3805C50.6474 67.0588 50.0531 66.4663 50.0531 65.7353V59.5588C50.0531 58.8279 50.6474 58.2353 51.3805 58.2353H57.5752Z" fill="#EC3E37"/>
<path fill-rule="evenodd" clip-rule="evenodd" d="M65.7611 45C69.4267 45 72.3982 47.9628 72.3982 51.6176V80.2941H43.6372C39.9716 80.2941 37 77.3313 37 73.6765V51.6176C37 47.9628 39.9716 45 43.6372 45H65.7611ZM64.8761 49.4118C66.5867 49.4118 67.9735 50.7944 67.9735 52.5V72.7941C67.9735 74.4997 66.5867 75.8824 64.8761 75.8824H44.5221C42.8115 75.8824 41.4248 74.4997 41.4248 72.7941V52.5C41.4248 50.7944 42.8115 49.4118 44.5221 49.4118H64.8761Z" fill="#EC3E37"/>
<path d="M91.4248 58.2353C90.6917 58.2353 90.0973 58.8279 90.0973 59.5588V65.7353C90.0973 66.4663 90.6917 67.0588 91.4248 67.0588H97.6195C98.3526 67.0588 98.9469 66.4663 98.9469 65.7353V59.5588C98.9469 58.8279 98.3526 58.2353 97.6195 58.2353H91.4248Z" fill="#EC3E37"/>
<path fill-rule="evenodd" clip-rule="evenodd" d="M83.2389 45C79.5733 45 76.6018 47.9628 76.6018 51.6176V80.2941H105.363C109.028 80.2941 112 77.3313 112 73.6765V51.6176C112 47.9628 109.028 45 105.363 45H83.2389ZM84.1239 49.4118C82.4133 49.4118 81.0265 50.7944 81.0265 52.5V72.7941C81.0265 74.4997 82.4133 75.8824 84.1239 75.8824H104.478C106.188 75.8824 107.575 74.4997 107.575 72.7941V52.5C107.575 50.7944 106.188 49.4118 104.478 49.4118H84.1239Z" fill="#EC3E37"/>
<path d="M103.15 86.0294C103.15 85.2984 103.745 84.7059 104.478 84.7059H106.248C106.981 84.7059 107.575 85.2984 107.575 86.0294V89.1176H103.15V86.0294Z" fill="#EC3E37"/>
<path d="M107.575 97.9412H104.478C103.745 97.9412 103.15 97.3486 103.15 96.6176V89.1176H100.053C99.32 89.1176 98.7257 89.7102 98.7257 90.4412V92.2059C98.7257 92.9368 98.1314 93.5294 97.3982 93.5294H95.6283C94.8952 93.5294 94.3009 94.122 94.3009 94.8529V96.6176C94.3009 97.3486 94.8952 97.9412 95.6283 97.9412H97.3982C98.1314 97.9412 98.7257 98.5337 98.7257 99.2647V106.765H95.6283C94.8952 106.765 94.3009 107.357 94.3009 108.088V109.853C94.3009 110.584 93.7066 111.176 92.9735 111.176H89.8761V108.088C89.8761 107.357 89.2818 106.765 88.5487 106.765H86.7788C86.0456 106.765 85.4513 107.357 85.4513 108.088V109.853C85.4513 110.584 86.0456 111.176 86.7788 111.176H89.8761V118.676C89.8761 119.407 90.4704 120 91.2035 120H92.9735C93.7066 120 94.3009 119.407 94.3009 118.676V116.912C94.3009 116.181 94.8952 115.588 95.6283 115.588H97.3982C98.1314 115.588 98.7257 114.996 98.7257 114.265V106.765H101.823C102.556 106.765 103.15 106.172 103.15 105.441V103.676C103.15 102.946 103.745 102.353 104.478 102.353H107.575V109.853C107.575 110.584 108.17 111.176 108.903 111.176H110.673C111.406 111.176 112 110.584 112 109.853V103.676C112 102.946 111.406 102.353 110.673 102.353H107.575V97.9412Z" fill="#EC3E37"/>
<path d="M107.575 97.9412H110.673C111.406 97.9412 112 97.3486 112 96.6176V90.4412C112 89.7102 111.406 89.1176 110.673 89.1176H107.575V97.9412Z" fill="#EC3E37"/>
<path d="M85.4513 90.4412C85.4513 89.7102 86.0456 89.1176 86.7788 89.1176H89.8761V96.6176C89.8761 97.3486 89.2818 97.9412 88.5487 97.9412H86.7788C86.0456 97.9412 85.4513 98.5337 85.4513 99.2647V101.029C85.4513 101.76 84.857 102.353 84.1239 102.353H82.354C81.6209 102.353 81.0265 101.76 81.0265 101.029V99.2647C81.0265 98.5337 80.4322 97.9412 79.6991 97.9412H77.9292C77.1961 97.9412 76.6018 97.3486 76.6018 96.6176V94.8529C76.6018 94.122 77.1961 93.5294 77.9292 93.5294H84.1239C84.857 93.5294 85.4513 92.9368 85.4513 92.2059V90.4412Z" fill="#EC3E37"/>
<path d="M92.9735 89.1176H89.8761V86.0294C89.8761 85.2984 90.4704 84.7059 91.2035 84.7059H92.9735C93.7066 84.7059 94.3009 85.2984 94.3009 86.0294V87.7941C94.3009 88.5251 93.7066 89.1176 92.9735 89.1176Z" fill="#EC3E37"/>
<path d="M110.673 115.588C111.406 115.588 112 116.181 112 116.912V118.676C112 119.407 111.406 120 110.673 120H104.478C103.745 120 103.15 119.407 103.15 118.676V116.912C103.15 116.181 103.745 115.588 104.478 115.588H110.673Z" fill="#EC3E37"/>
<path d="M85.4513 116.912C85.4513 116.181 84.857 115.588 84.1239 115.588H82.354C81.6209 115.588 81.0265 116.181 81.0265 116.912V118.676C81.0265 119.407 81.6209 120 82.354 120H84.1239C84.857 120 85.4513 119.407 85.4513 118.676V116.912Z" fill="#EC3E37"/>
<path d="M76.6018 86.0294C76.6018 85.2984 77.1961 84.7059 77.9292 84.7059H79.6991C80.4322 84.7059 81.0265 85.2984 81.0265 86.0294V87.7941C81.0265 88.5251 80.4322 89.1176 79.6991 89.1176H77.9292C77.1961 89.1176 76.6018 88.5251 76.6018 87.7941V86.0294Z" fill="#EC3E37"/>
<path d="M57.5752 106.765C58.3083 106.765 58.9027 106.172 58.9027 105.441V99.2647C58.9027 98.5337 58.3083 97.9412 57.5752 97.9412H51.3805C50.6474 97.9412 50.0531 98.5337 50.0531 99.2647V105.441C50.0531 106.172 50.6474 106.765 51.3805 106.765H57.5752Z" fill="#EC3E37"/>
<path fill-rule="evenodd" clip-rule="evenodd" d="M65.7611 120C69.4267 120 72.3982 117.037 72.3982 113.382V84.7059H43.6372C39.9716 84.7059 37 87.6687 37 91.3235V113.382C37 117.037 39.9716 120 43.6372 120H65.7611ZM64.8761 115.588C66.5867 115.588 67.9735 114.206 67.9735 112.5V92.2059C67.9735 90.5003 66.5867 89.1176 64.8761 89.1176H44.5221C42.8115 89.1176 41.4248 90.5003 41.4248 92.2059V112.5C41.4248 114.206 42.8115 115.588 44.5221 115.588H64.8761Z" fill="#EC3E37"/>
</svg>
