<svg width="17" height="17" viewBox="0 0 17 17" fill="none" xmlns="http://www.w3.org/2000/svg">
<path fill-rule="evenodd" clip-rule="evenodd" d="M13.1138 5.60117L13.9214 2.88888C13.9917 2.65306 13.9324 2.39719 13.7657 2.21764C13.599 2.03809 13.3502 1.96214 13.1132 2.01841C12.8761 2.07469 12.6866 2.25461 12.6163 2.49043L11.9245 4.81874C9.77407 3.68337 7.20995 3.68607 5.0618 4.82598L4.36667 2.49043C4.25789 2.12589 3.87756 1.91956 3.51717 2.02959C3.15678 2.13962 2.95281 2.52434 3.06158 2.88888L3.87258 5.61185C2.05136 7.08432 0.993719 9.31678 1.00003 11.6751C1.00003 15.9312 4.35644 14.8868 8.50004 14.8868C12.6436 14.8868 16 15.9312 16 11.6751C16.0072 9.31044 14.9439 7.07253 13.1138 5.60117ZM8.49313 11.0963C5.53542 11.0963 3.13652 11.4065 3.13652 10.1384C3.13652 8.87036 5.53542 7.84077 8.49313 7.84077C11.4509 7.84077 13.8532 8.86933 13.8532 10.1384C13.8532 11.4075 11.4543 11.0963 8.49313 11.0963ZM6.0433 8.79083C5.62102 8.86886 5.33181 9.26601 5.38334 9.69713C5.43487 10.1282 5.80933 10.4441 6.23782 10.4181C6.66636 10.392 7.00069 10.033 7.00078 9.59884C6.95299 9.11032 6.52692 8.75089 6.0433 8.79083ZM10.2821 9.69955C10.3346 10.1306 10.7096 10.4458 11.1381 10.4193C11.5666 10.3927 11.9006 10.0334 11.9007 9.59913C11.8529 9.1092 11.4246 8.74921 10.9397 8.79121C10.5177 8.87064 10.2296 9.26853 10.2821 9.69955Z" fill="url(#paint0_linear_8_68)"/>
<defs>
<linearGradient id="paint0_linear_8_68" x1="8.50004" y1="2" x2="8.50004" y2="15" gradientUnits="userSpaceOnUse">
<stop stop-color="#2FC7F7"/>
<stop offset="0.9999" stop-color="#3F9FEF"/>
<stop offset="1" stop-color="#409EEF"/>
</linearGradient>
</defs>
</svg>
