<svg width="17" height="17" viewBox="0 0 17 17" fill="none" xmlns="http://www.w3.org/2000/svg">
<path fill-rule="evenodd" clip-rule="evenodd" d="M1 2.43778C1 2.196 1.19545 2 1.43657 2H12.8016C13.0428 2 13.2382 2.196 13.2382 2.43778V3.55531C13.2382 3.73037 13.1358 3.88142 12.9877 3.95147C12.7695 3.92878 12.548 3.91716 12.3239 3.91716C11.9889 3.91716 11.6601 3.94309 11.3392 3.99309H1.43657C1.19545 3.99309 1 3.79709 1 3.55531V2.43778ZM5.96178 10.2968C5.96178 10.2463 5.96236 10.196 5.96352 10.146H1.43657C1.19545 10.146 1 10.3419 1 10.5837V11.7013C1 11.9431 1.19545 12.1391 1.43657 12.1391H6.23108C6.05592 11.5558 5.96178 10.9373 5.96178 10.2968ZM6.3617 8.06565C6.63685 7.32664 7.04469 6.65255 7.55617 6.07259H1.43657C1.19545 6.07259 1 6.26859 1 6.51031V7.62785C1 7.86973 1.19545 8.06565 1.43657 8.06565H6.3617ZM10.747 9.83533L11.7942 10.8855L14.305 8.36786L15.0453 9.11031L11.795 12.3696L11.7547 12.3292L11.754 12.3299L10.0066 10.5777L10.747 9.83533ZM7.6476 10.3108C7.6476 12.9006 9.74125 15 12.3239 15C14.9064 15 17 12.9006 17 10.3108C17 7.72122 14.9064 5.62179 12.3239 5.62179C9.74125 5.62179 7.6476 7.72122 7.6476 10.3108Z" fill="url(#paint0_linear_8_72)"/>
<defs>
<linearGradient id="paint0_linear_8_72" x1="9" y1="2" x2="9" y2="15" gradientUnits="userSpaceOnUse">
<stop stop-color="#2FC7F7"/>
<stop offset="1" stop-color="#409EEF"/>
</linearGradient>
</defs>
</svg>
