<svg width="17" height="17" viewBox="0 0 17 17" fill="none" xmlns="http://www.w3.org/2000/svg">
<g clip-path="url(#clip0_8_65)">
<path d="M9.85 11.625L4.27485 6.125V9.6605H0.849998V13.9032H4.27485V17.125L9.85 11.625Z" fill="url(#paint0_linear_8_65)"/>
<path fill-rule="evenodd" clip-rule="evenodd" d="M12.4568 8.3284C13.7988 8.6716 14.4804 9.2605 14.4804 9.776L14.85 12.125H10.0076L10.7625 11.3742C11.0867 11.0518 11.0867 10.529 10.7625 10.2066L7.75211 7.2127L7.99842 7.1832C7.99842 7.1832 8.06002 7.296 7.96123 6.6335C7.96123 6.6335 7.43513 6.4961 7.41076 5.4411C7.41076 5.4411 7.01522 5.5736 6.99137 4.93441C6.98643 4.80704 6.95376 4.68459 6.92246 4.56727C6.84739 4.28585 6.78018 4.03392 7.12242 3.81439L6.87551 3.15109C6.87551 3.15109 6.61574 0.589661 7.7541 0.797011C7.29228 0.0598506 11.1874 -0.552909 11.4461 1.70422C11.5479 2.38464 11.5479 3.07617 11.4461 3.75659C11.4461 3.75659 12.028 3.6892 11.6395 4.80377C11.6395 4.80377 11.4257 5.606 11.0972 5.4258C11.0972 5.4258 11.1504 6.4396 10.6333 6.6114C10.6333 6.6114 10.6702 7.1514 10.6702 7.1879L11.1025 7.2529C11.1025 7.2529 11.0894 7.7032 11.1756 7.7519C11.5699 8.0085 12.0021 8.203 12.4568 8.3284Z" fill="url(#paint1_linear_8_65)"/>
</g>
<defs>
<linearGradient id="paint0_linear_8_65" x1="5.35" y1="6.125" x2="5.35" y2="17.125" gradientUnits="userSpaceOnUse">
<stop stop-color="#2FC7F7"/>
<stop offset="0.9999" stop-color="#3F9FEF"/>
<stop offset="1" stop-color="#409EEF"/>
</linearGradient>
<linearGradient id="paint1_linear_8_65" x1="10.85" y1="0.125001" x2="10.85" y2="12.125" gradientUnits="userSpaceOnUse">
<stop stop-color="#2FC7F7"/>
<stop offset="0.9999" stop-color="#3F9FEF"/>
<stop offset="1" stop-color="#409EEF"/>
</linearGradient>
<clipPath id="clip0_8_65">
<rect width="17" height="17" fill="white"/>
</clipPath>
</defs>
</svg>
