<svg width="17" height="17" viewBox="0 0 17 17" fill="none" xmlns="http://www.w3.org/2000/svg">
<path fill-rule="evenodd" clip-rule="evenodd" d="M6.08353 2C6.08353 3.10457 5.21297 4 4.13908 4C3.0652 4 2.19464 3.10457 2.19464 2C2.19464 0.895426 3.0652 0 4.13908 0C5.21297 0 6.08353 0.895426 6.08353 2ZM7.83333 1.9998C7.83333 1.33706 7.97498 0.799802 8.61926 0.799802H13.8611C15.0423 0.799802 16 1.78478 16 2.9998V6.99981C16 8.21478 15.0423 9.19981 13.8611 9.19981H4.33333V12.7998H9.34186C9.98622 12.7998 10.1667 13.3371 10.1667 13.9998C10.1667 14.6625 9.98622 15.1998 9.34186 15.1998H4.13889C2.95762 15.1998 2 14.2148 2 12.9998V8.99981C2 7.78475 2.95762 6.79981 4.13889 6.79981H13.6667V3.1998H8.61926C7.97498 3.1998 7.83333 2.66255 7.83333 1.9998ZM13.8613 16C14.9352 16 15.8057 15.1046 15.8057 14C15.8057 12.8954 14.9352 12 13.8613 12C12.7874 12 11.9168 12.8954 11.9168 14C11.9168 15.1046 12.7874 16 13.8613 16Z" fill="url(#paint0_linear_8_70)"/>
<defs>
<linearGradient id="paint0_linear_8_70" x1="9" y1="0" x2="9" y2="16" gradientUnits="userSpaceOnUse">
<stop stop-color="#2FC7F7"/>
<stop offset="1" stop-color="#409EEF"/>
</linearGradient>
</defs>
</svg>
