<svg width="17" height="17" viewBox="0 0 17 17" fill="none" xmlns="http://www.w3.org/2000/svg">
<path fill-rule="evenodd" clip-rule="evenodd" d="M14.6809 2.72887L2.2939 2.72892C1.77778 2.72892 1.77778 1.80567 1.77778 2.21274V15.4093C1.77778 15.8164 2.10949 16.1481 2.51656 16.1481H14.4582C14.8653 16.1481 15.1971 15.8164 15.1971 15.4093V2.21264C15.192 1.81057 15.1971 2.72887 14.6809 2.72887ZM9.31167 12.9415C9.31167 13.1728 9.12065 13.3587 8.89448 13.3587H3.98417C3.75299 13.3587 3.56703 13.1677 3.56703 12.9415V12.0168C3.56703 11.7856 3.758 11.5997 3.98417 11.5997H8.89448C9.12571 11.5997 9.31167 11.7906 9.31167 12.0168V12.9415ZM13.4128 9.66467C13.4128 9.89584 13.2218 10.0818 12.9957 10.0818H3.97916C3.74799 10.0818 3.56203 9.89083 3.56203 9.66467V8.73987C3.56203 8.5087 3.75299 8.32274 3.97916 8.32274H12.9907C13.2218 8.32274 13.4078 8.51371 13.4078 8.73987V9.66467H13.4128ZM13.4128 6.38273C13.4128 6.6139 13.2218 6.79986 12.9957 6.79986H3.97916C3.74799 6.79986 3.56203 6.60889 3.56203 6.38273V5.45793C3.56203 5.22676 3.75299 5.0408 3.97916 5.0408H12.9907C13.2218 5.0408 13.4078 5.23177 13.4078 5.45793V6.38273H13.4128Z" fill="url(#paint0_linear_8_108)"/>
<path d="M3.32616 2.21264C3.6112 2.21264 3.84228 1.98156 3.84228 1.69652C3.84228 1.41147 3.6112 1.18039 3.32616 1.18039C3.04111 1.18039 2.81003 1.41147 2.81003 1.69652C2.81003 1.98156 3.04111 2.21264 3.32616 2.21264Z" fill="#2FC7F7"/>
<path d="M4.87453 2.21264C5.15958 2.21264 5.39066 1.98156 5.39066 1.69652C5.39066 1.41147 5.15958 1.18039 4.87453 1.18039C4.58949 1.18039 4.35841 1.41147 4.35841 1.69652C4.35841 1.98156 4.58949 2.21264 4.87453 2.21264Z" fill="#2FC7F7"/>
<path d="M6.42291 2.21264C6.70796 2.21264 6.93904 1.98156 6.93904 1.69652C6.93904 1.41147 6.70796 1.18039 6.42291 1.18039C6.13786 1.18039 5.90679 1.41147 5.90679 1.69652C5.90679 1.98156 6.13786 2.21264 6.42291 2.21264Z" fill="#2FC7F7"/>
<path d="M1.77778 0.664273C1.77778 0.379217 2.00885 0.148148 2.2939 0.148148H14.6809C14.966 0.148148 15.1971 0.379217 15.1971 0.664273H1.77778Z" fill="#2FC7F7"/>
<path d="M2.03584 0.664276V2.72878" stroke="#2FC7F7"/>
<path d="M14.939 0.664276V2.72878" stroke="#2FC7F7"/>
<defs>
<linearGradient id="paint0_linear_8_108" x1="8.48742" y1="2.72876" x2="8.48742" y2="16.148" gradientUnits="userSpaceOnUse">
<stop stop-color="#2FC7F7"/>
<stop offset="1" stop-color="#3F9FEF"/>
</linearGradient>
</defs>
</svg>
