<svg width="17" height="17" viewBox="0 0 17 17" fill="none" xmlns="http://www.w3.org/2000/svg">
<path fill-rule="evenodd" clip-rule="evenodd" d="M8.31799 15.9936C5.05626 16.1237 2.04272 14.2585 0.703912 11.2811C-0.634897 8.30371 -0.0303571 4.81139 2.23137 2.45736C4.49309 0.103323 7.9582 -0.640117 10.9864 0.578963C14.0146 1.79804 15.9983 4.73502 15.9985 7.99961C16.0826 12.3273 12.6452 15.905 8.31799 15.9936ZM8.2489 14.2571C5.69559 14.3589 3.3366 12.8989 2.28857 10.5682C1.24055 8.2374 1.71379 5.50367 3.48426 3.66093C5.25474 1.81819 7.9672 1.23622 10.3377 2.19052C12.7082 3.14481 14.261 5.44388 14.2612 7.9994C14.3271 11.3872 11.6363 14.1878 8.2489 14.2571ZM4.44846 4.58809C5.3955 3.6024 6.6852 3.07538 8 3.0752V8.0005L12.3351 10.4091C11.532 11.8764 9.98779 12.8851 8.19569 12.9218C6.1876 13.0018 4.33232 11.8536 3.50808 10.0205C2.68383 8.18741 3.05602 6.0374 4.44846 4.58809Z" fill="url(#paint0_linear_8_76)"/>
<defs>
<linearGradient id="paint0_linear_8_76" x1="8" y1="2.69618e-06" x2="8" y2="16" gradientUnits="userSpaceOnUse">
<stop stop-color="#2FC7F7"/>
<stop offset="0.9999" stop-color="#3F9FEF"/>
<stop offset="1" stop-color="#409EEF"/>
</linearGradient>
</defs>
</svg>
