<svg width="17" height="17" viewBox="0 0 17 17" fill="none" xmlns="http://www.w3.org/2000/svg">
<g clip-path="url(#clip0_8_78)">
<path fill-rule="evenodd" clip-rule="evenodd" d="M2.49588 2.26667C1.50404 2.26667 0.700001 3.07071 0.700001 4.06255V8.55225C0.700001 9.54409 1.50404 10.3481 2.49588 10.3481H2.5167V11.7413C2.5167 12.2212 3.09702 12.4616 3.43642 12.1222L5.13446 10.4242V8.11472C5.13446 6.87487 6.13952 5.86983 7.37931 5.86983H11.4753V4.06255C11.4753 3.07071 10.6712 2.26667 9.67943 2.26667H2.49588ZM6.1869 8.33037C6.1869 7.58654 6.78996 6.98348 7.53379 6.98348H12.8832C13.627 6.98348 14.2301 7.58654 14.2301 8.33037V12.5764C14.2301 13.3203 13.627 13.9233 12.8832 13.9233H7.53379C6.78996 13.9233 6.1869 13.3203 6.1869 12.5764V8.33037ZM14.9241 8.97354L17.7 7.67712V13.229L14.9241 12.088V8.97354Z" fill="url(#paint0_linear_8_78)"/>
</g>
<defs>
<linearGradient id="paint0_linear_8_78" x1="9.2" y1="2.26667" x2="9.2" y2="13.9233" gradientUnits="userSpaceOnUse">
<stop stop-color="#2FC7F7"/>
<stop offset="1" stop-color="#409EEF"/>
</linearGradient>
<clipPath id="clip0_8_78">
<rect width="17" height="17" fill="white"/>
</clipPath>
</defs>
</svg>
