<svg width="32" height="32" viewBox="0 0 32 32" fill="none" xmlns="http://www.w3.org/2000/svg">
<path fill-rule="evenodd" clip-rule="evenodd" d="M10.2795 4H21.7224C25.2153 4.02641 28.0257 6.87903 28.0001 10.372V18.1086C28.0124 19.7863 27.3577 21.4001 26.1801 22.5951C25.0025 23.7901 23.3983 24.4683 21.7207 24.4806H10.2795L4.00008 28V10.372C3.98776 8.6943 4.64243 7.08043 5.82006 5.88544C6.99769 4.69045 8.60181 4.01223 10.2795 4Z" stroke="#0A102F" stroke-width="1.5" stroke-linecap="round" stroke-linejoin="round"/>
<path fill-rule="evenodd" clip-rule="evenodd" d="M7.42868 14.2858C7.42868 13.339 8.19619 12.5715 9.14297 12.5715C10.0897 12.5715 10.8573 13.339 10.8573 14.2858C10.8573 15.2326 10.0897 16.0001 9.14297 16.0001C8.68831 16.0001 8.25227 15.8195 7.93078 15.498C7.60929 15.1765 7.42868 14.7405 7.42868 14.2858Z" stroke="#0A102F" stroke-linecap="round" stroke-linejoin="round"/>
<path fill-rule="evenodd" clip-rule="evenodd" d="M14.2857 14.2858C14.2857 13.339 15.0532 12.5715 16 12.5715C16.9468 12.5715 17.7143 13.339 17.7143 14.2858C17.7143 15.2326 16.9468 16.0001 16 16.0001C15.0532 16.0001 14.2857 15.2326 14.2857 14.2858Z" stroke="#0A102F" stroke-linecap="round" stroke-linejoin="round"/>
<path fill-rule="evenodd" clip-rule="evenodd" d="M21.1431 14.2858C21.1431 13.339 21.9106 12.5715 22.8574 12.5715C23.8041 12.5715 24.5716 13.339 24.5716 14.2858C24.5716 15.2326 23.8041 16.0001 22.8574 16.0001C21.9106 16.0001 21.1431 15.2326 21.1431 14.2858Z" stroke="#0A102F" stroke-linecap="round" stroke-linejoin="round"/>
</svg>
