<svg width="32" height="32" viewBox="0 0 32 32" fill="none" xmlns="http://www.w3.org/2000/svg">
<path d="M8.53894 8.07532C8.53894 7.6611 8.20316 7.32532 7.78894 7.32532C7.37473 7.32532 7.03894 7.6611 7.03894 8.07532H7.78894H8.53894ZM7.78894 21.6176H7.03893L7.03896 21.6223L7.78894 21.6176ZM8.40374 23.0739L7.87733 23.6082H7.87733L8.40374 23.0739ZM9.86893 23.6672V22.9172L9.86252 22.9173L9.86893 23.6672ZM25.92 23.6672L25.9265 22.9172H25.92V23.6672ZM27.3852 23.0739L27.9116 23.6082V23.6082L27.3852 23.0739ZM28 21.6176L28.75 21.6223V21.6176H28ZM28 10.1201H28.75L28.75 10.1155L28 10.1201ZM27.3852 8.66381L26.8588 9.19802V9.19802L27.3852 8.66381ZM25.92 8.07052V8.82054L25.9265 8.82049L25.92 8.07052ZM18.5729 7.32052C18.1587 7.32052 17.8229 7.6563 17.8229 8.07052C17.8229 8.48473 18.1587 8.82052 18.5729 8.82052V8.07052V7.32052ZM7.04041 8.07046C7.04041 8.48467 7.37619 8.82046 7.79041 8.82046C8.20462 8.82046 8.54041 8.48467 8.54041 8.07046H7.79041H7.04041ZM7.79041 7.04966L7.04041 7.04502V7.04966H7.79041ZM8.40351 5.59507L8.93053 6.12868V6.12868L8.40351 5.59507ZM9.8656 5.00008L9.86093 5.75008H9.8656V5.00008ZM16.496 5.00008V5.7501L16.5024 5.75005L16.496 5.00008ZM17.9611 5.59336L18.4876 5.05914V5.05914L17.9611 5.59336ZM18.5759 7.04966H19.326L19.3259 7.04504L18.5759 7.04966ZM17.8259 8.07526C17.8259 8.48947 18.1617 8.82526 18.5759 8.82526C18.9902 8.82526 19.3259 8.48947 19.3259 8.07526H18.5759H17.8259ZM7.79363 7.32532C7.37942 7.32532 7.04363 7.66111 7.04363 8.07532C7.04363 8.48954 7.37942 8.82532 7.79363 8.82532V8.07532V7.32532ZM18.5728 8.82532C18.987 8.82532 19.3228 8.48954 19.3228 8.07532C19.3228 7.66111 18.987 7.32532 18.5728 7.32532V8.07532V8.82532ZM24.9612 23.6672C24.9612 23.253 24.6254 22.9172 24.2112 22.9172C23.797 22.9172 23.4612 23.253 23.4612 23.6672H24.2112H24.9612ZM24.2112 25.2672H23.4611L23.4613 25.2781L24.2112 25.2672ZM23.6153 26.7645L24.1526 27.2877V27.2877L23.6153 26.7645ZM22.1344 27.4V28.15L22.1435 28.1499L22.1344 27.4ZM6.08013 27.4L6.07218 28.15H6.08013V27.4ZM4.59947 26.7678L4.06332 27.2923H4.06332L4.59947 26.7678ZM4.00014 25.2736L4.75014 25.2822V25.2736H4.00014ZM4.00014 13.3489H4.75019L4.75009 13.3403L4.00014 13.3489ZM4.59947 11.8546L4.06332 11.3302H4.06332L4.59947 11.8546ZM6.08013 11.2225V10.4724L6.07219 10.4725L6.08013 11.2225ZM7.78892 11.9725C8.20313 11.9725 8.53892 11.6367 8.53892 11.2225C8.53892 10.8083 8.20313 10.4725 7.78892 10.4725V11.2225V11.9725ZM7.78894 8.07532H7.03894V21.6176H7.78894H8.53894V8.07532H7.78894ZM7.78894 21.6176L7.03896 21.6223C7.04357 22.3693 7.34521 23.0838 7.87733 23.6082L8.40374 23.0739L8.93015 22.5397C8.68184 22.295 8.54108 21.9616 8.53893 21.613L7.78894 21.6176ZM8.40374 23.0739L7.87733 23.6082C8.40945 24.1325 9.12832 24.4236 9.87534 24.4172L9.86893 23.6672L9.86252 22.9173C9.51392 22.9202 9.17846 22.7844 8.93015 22.5397L8.40374 23.0739ZM9.86893 23.6672V24.4172H25.92V23.6672V22.9172H9.86893V23.6672ZM25.92 23.6672L25.9136 24.4172C26.6606 24.4236 27.3795 24.1325 27.9116 23.6082L27.3852 23.0739L26.8588 22.5397C26.6105 22.7844 26.275 22.9202 25.9264 22.9173L25.92 23.6672ZM27.3852 23.0739L27.9116 23.6082C28.4438 23.0838 28.7454 22.3693 28.75 21.6223L28 21.6176L27.25 21.613C27.2479 21.9616 27.1071 22.295 26.8588 22.5397L27.3852 23.0739ZM28 21.6176H28.75V10.1201H28H27.25V21.6176H28ZM28 10.1201L28.75 10.1155C28.7454 9.36844 28.4438 8.65393 27.9116 8.12959L27.3852 8.66381L26.8588 9.19802C27.1071 9.44271 27.2479 9.77613 27.25 10.1247L28 10.1201ZM27.3852 8.66381L27.9116 8.12959C27.3795 7.60524 26.6606 7.31415 25.9136 7.32054L25.92 8.07052L25.9265 8.82049C26.275 8.81751 26.6105 8.95334 26.8588 9.19802L27.3852 8.66381ZM25.92 8.07052V7.32052H18.5729V8.07052V8.82052H25.92V8.07052ZM7.79041 8.07046H8.54041V7.04966H7.79041H7.04041V8.07046H7.79041ZM7.79041 7.04966L8.54039 7.0543C8.54255 6.70623 8.68289 6.37328 8.93053 6.12868L8.40351 5.59507L7.87648 5.06146C7.34578 5.58562 7.04504 6.29913 7.04042 7.04502L7.79041 7.04966ZM8.40351 5.59507L8.93053 6.12868C9.17818 5.88409 9.51286 5.74789 9.86093 5.75006L9.8656 5.00008L9.87026 4.25009C9.12437 4.24545 8.40718 4.53731 7.87648 5.06146L8.40351 5.59507ZM9.8656 5.00008V5.75008H16.496V5.00008V4.25008H9.8656V5.00008ZM16.496 5.00008L16.5024 5.75005C16.851 5.74707 17.1864 5.8829 17.4347 6.12758L17.9611 5.59336L18.4876 5.05914C17.9554 4.5348 17.2366 4.24371 16.4895 4.2501L16.496 5.00008ZM17.9611 5.59336L17.4347 6.12758C17.683 6.37227 17.8238 6.70569 17.826 7.05429L18.5759 7.04966L19.3259 7.04504C19.3213 6.298 19.0197 5.58349 18.4876 5.05914L17.9611 5.59336ZM18.5759 7.04966H17.8259V8.07526H18.5759H19.3259V7.04966H18.5759ZM7.79363 8.07532V8.82532H18.5728V8.07532V7.32532H7.79363V8.07532ZM24.2112 23.6672H23.4612V25.2672H24.2112H24.9612V23.6672H24.2112ZM24.2112 25.2672L23.4613 25.2781C23.4665 25.6373 23.3286 25.9838 23.078 26.2412L23.6153 26.7645L24.1526 27.2877C24.6813 26.7448 24.9722 26.0139 24.9611 25.2563L24.2112 25.2672ZM23.6153 26.7645L23.078 26.2412C22.8273 26.4986 22.4846 26.6457 22.1254 26.65L22.1344 27.4L22.1435 28.1499C22.9011 28.1408 23.624 27.8305 24.1526 27.2877L23.6153 26.7645ZM22.1344 27.4V26.65H6.08013V27.4V28.15H22.1344V27.4ZM6.08013 27.4L6.08807 26.65C5.72921 26.6462 5.38657 26.4999 5.13562 26.2434L4.59947 26.7678L4.06332 27.2923C4.59262 27.8334 5.31529 28.1419 6.07218 28.1499L6.08013 27.4ZM4.59947 26.7678L5.13562 26.2434C4.88466 25.9868 4.74597 25.6411 4.75009 25.2822L4.00014 25.2736L3.25019 25.265C3.2415 26.0219 3.53402 26.7512 4.06332 27.2923L4.59947 26.7678ZM4.00014 25.2736H4.75014V13.3489H4.00014H3.25014V25.2736H4.00014ZM4.00014 13.3489L4.75009 13.3403C4.74597 12.9814 4.88466 12.6356 5.13562 12.3791L4.59947 11.8546L4.06332 11.3302C3.53402 11.8713 3.2415 12.6006 3.25019 13.3575L4.00014 13.3489ZM4.59947 11.8546L5.13562 12.3791C5.38657 12.1225 5.72921 11.9762 6.08807 11.9724L6.08013 11.2225L6.07219 10.4725C5.31529 10.4805 4.59262 10.7891 4.06332 11.3302L4.59947 11.8546ZM6.08013 11.2225V11.9725H7.78892V11.2225V10.4725H6.08013V11.2225Z" fill="#0A102F"/>
</svg>
