<svg width="32" height="32" viewBox="0 0 32 32" fill="none" xmlns="http://www.w3.org/2000/svg">
<path fill-rule="evenodd" clip-rule="evenodd" d="M15.9999 13.6L4 8.79998L15.9999 4L27.9999 8.79998L15.9999 13.6Z" stroke="#0A102F" stroke-width="1.5" stroke-linecap="round" stroke-linejoin="round"/>
<path d="M4.27854 22.5036C3.89396 22.3497 3.45748 22.5368 3.30364 22.9214C3.14981 23.306 3.33687 23.7425 3.72146 23.8963L4 23.1999L4.27854 22.5036ZM15.9999 27.9999L15.7214 28.6963C15.9002 28.7678 16.0997 28.7678 16.2785 28.6963L15.9999 27.9999ZM28.2784 23.8963C28.663 23.7425 28.8501 23.306 28.6963 22.9214C28.5424 22.5368 28.1059 22.3497 27.7214 22.5036L27.9999 23.1999L28.2784 23.8963ZM4.27854 15.3036C3.89396 15.1498 3.45748 15.3369 3.30364 15.7215C3.14981 16.106 3.33687 16.5425 3.72146 16.6964L4 16L4.27854 15.3036ZM15.9999 20.8L15.7214 21.4963C15.9002 21.5679 16.0997 21.5679 16.2785 21.4963L15.9999 20.8ZM28.2784 16.6964C28.663 16.5425 28.8501 16.106 28.6963 15.7215C28.5424 15.3369 28.1059 15.1498 27.7214 15.3036L27.9999 16L28.2784 16.6964ZM4 23.1999L3.72146 23.8963L15.7214 28.6963L15.9999 27.9999L16.2785 27.3036L4.27854 22.5036L4 23.1999ZM15.9999 27.9999L16.2785 28.6963L28.2784 23.8963L27.9999 23.1999L27.7214 22.5036L15.7214 27.3036L15.9999 27.9999ZM4 16L3.72146 16.6964L15.7214 21.4963L15.9999 20.8L16.2785 20.1036L4.27854 15.3036L4 16ZM15.9999 20.8L16.2785 21.4963L28.2784 16.6964L27.9999 16L27.7214 15.3036L15.7214 20.1036L15.9999 20.8Z" fill="#0A102F"/>
</svg>
