<svg width="32" height="32" viewBox="0 0 32 32" fill="none" xmlns="http://www.w3.org/2000/svg">
<path fill-rule="evenodd" clip-rule="evenodd" d="M19.5001 15.25C19.5001 16.9069 18.157 18.25 16.5001 18.25C14.8433 18.25 13.5001 16.9069 13.5001 15.25C13.5001 13.5931 14.8433 12.25 16.5001 12.25C18.157 12.25 19.5001 13.5931 19.5001 15.25Z" stroke="#0A102F" stroke-width="1.5" stroke-linecap="round" stroke-linejoin="round"/>
<path d="M19.5 6.24995C19.0858 6.24995 18.75 6.58574 18.75 6.99995C18.75 7.41417 19.0858 7.74995 19.5 7.74995V6.99995V6.24995ZM13.5 7.74995C13.9142 7.74995 14.25 7.41417 14.25 6.99995C14.25 6.58574 13.9142 6.24995 13.5 6.24995V6.99995V7.74995ZM20.2499 6.99995C20.2499 6.58574 19.9141 6.24995 19.4999 6.24995C19.0857 6.24995 18.7499 6.58574 18.7499 6.99995H19.4999H20.2499ZM18.7499 8.49995C18.7499 8.91417 19.0857 9.24995 19.4999 9.24995C19.9141 9.24995 20.2499 8.91417 20.2499 8.49995H19.4999H18.7499ZM18.7499 7C18.7499 7.41421 19.0857 7.75 19.4999 7.75C19.9141 7.75 20.2499 7.41421 20.2499 7H19.4999H18.7499ZM20.2499 4C20.2499 3.58579 19.9141 3.25 19.4999 3.25C19.0857 3.25 18.7499 3.58579 18.7499 4H19.4999H20.2499ZM19.5001 7.75C19.9143 7.75 20.2501 7.41421 20.2501 7C20.2501 6.58579 19.9143 6.25 19.5001 6.25V7V7.75ZM13.5001 6.25C13.0859 6.25 12.7501 6.58579 12.7501 7C12.7501 7.41421 13.0859 7.75 13.5001 7.75V7V6.25ZM14.25 6.99995C14.25 6.58574 13.9142 6.24995 13.5 6.24995C13.0858 6.24995 12.75 6.58574 12.75 6.99995H13.5H14.25ZM12.75 8.49995C12.75 8.91417 13.0858 9.24995 13.5 9.24995C13.9142 9.24995 14.25 8.91417 14.25 8.49995H13.5H12.75ZM12.75 7C12.75 7.41421 13.0858 7.75 13.5 7.75C13.9142 7.75 14.25 7.41421 14.25 7H13.5H12.75ZM14.25 4C14.25 3.58579 13.9142 3.25 13.5 3.25C13.0858 3.25 12.75 3.58579 12.75 4H13.5H14.25ZM7.05099 25.1492C6.71917 25.3972 6.65117 25.8672 6.8991 26.199C7.14704 26.5308 7.61701 26.5988 7.94883 26.3509L7.49991 25.75L7.05099 25.1492ZM25.051 26.3509C25.3828 26.5988 25.8528 26.5308 26.1007 26.199C26.3486 25.8672 26.2806 25.3972 25.9488 25.1492L25.4999 25.75L25.051 26.3509ZM19.5 6.99995V7.74995H21V6.99995V6.24995H19.5V6.99995ZM21 6.99995V7.74995C23.8995 7.74995 26.25 10.1005 26.25 13H27H27.75C27.75 9.27203 24.7279 6.24995 21 6.24995V6.99995ZM27 13H26.25V22H27H27.75V13H27ZM27 22H26.25C26.25 24.8994 23.8995 27.25 21 27.25V28V28.75C24.7279 28.75 27.75 25.7279 27.75 22H27ZM21 28V27.25H12V28V28.75H21V28ZM12 28V27.25C9.1005 27.25 6.75 24.8994 6.75 22H6H5.25C5.25 25.7279 8.27208 28.75 12 28.75V28ZM6 22H6.75V13H6H5.25V22H6ZM6 13H6.75C6.75 10.1005 9.1005 7.74995 12 7.74995V6.99995V6.24995C8.27208 6.24995 5.25 9.27203 5.25 13H6ZM12 6.99995V7.74995H13.5V6.99995V6.24995H12V6.99995ZM19.4999 6.99995H18.7499V8.49995H19.4999H20.2499V6.99995H19.4999ZM19.4999 7H20.2499V4H19.4999H18.7499V7H19.4999ZM19.5001 7V6.25H13.5001V7V7.75H19.5001V7ZM13.5 6.99995H12.75V8.49995H13.5H14.25V6.99995H13.5ZM13.5 7H14.25V4H13.5H12.75V7H13.5ZM7.49991 25.75L7.94883 26.3509C13.0199 22.5617 19.9799 22.5617 25.051 26.3509L25.4999 25.75L25.9488 25.1492C20.3453 20.9623 12.6545 20.9623 7.05099 25.1492L7.49991 25.75Z" fill="#0A102F"/>
</svg>
