<svg width="32" height="32" viewBox="0 0 32 32" fill="none" xmlns="http://www.w3.org/2000/svg">
<path fill-rule="evenodd" clip-rule="evenodd" d="M3 20.3757V17.2492C3.03459 15.8357 4.20753 14.7173 5.62111 14.75H6.69523C7.61836 11.8942 10.2499 9.93725 13.2504 9.875H18.7494C21.75 9.93725 24.3815 11.8942 25.3046 14.75C25.6008 15.5999 25.7513 16.4938 25.7499 17.3938V20.231C25.8879 24.2385 22.7565 27.6017 18.7494 27.7499H13.2504C10.2499 27.6876 7.61836 25.7306 6.69523 22.8749H5.62111C4.20753 22.9076 3.03459 21.7892 3 20.3757Z" stroke="#0A102F" stroke-width="1.5" stroke-linecap="round" stroke-linejoin="round"/>
<path fill-rule="evenodd" clip-rule="evenodd" d="M19.2498 17.1875C19.2498 18.9824 17.7948 20.4375 15.9999 20.4375C14.2049 20.4375 12.7499 18.9824 12.7499 17.1875C12.7499 15.3926 14.2049 13.9375 15.9999 13.9375C17.7948 13.9375 19.2498 15.3926 19.2498 17.1875Z" stroke="#0A102F" stroke-width="1.5" stroke-linecap="round" stroke-linejoin="round"/>
<path d="M16.7503 5C16.7503 4.58579 16.4145 4.25 16.0003 4.25C15.5861 4.25 15.2503 4.58579 15.2503 5H16.0003H16.7503ZM15.2503 9.87496C15.2503 10.2892 15.5861 10.625 16.0003 10.625C16.4145 10.625 16.7503 10.2892 16.7503 9.87496H16.0003H15.2503ZM5.98744 23.1217C6.12371 23.5129 6.55128 23.7195 6.94243 23.5832C7.33359 23.4469 7.54021 23.0194 7.40393 22.6282L6.69568 22.875L5.98744 23.1217ZM6.25044 20.2311L7.00044 20.2323V20.2311H6.25044ZM6.25044 17.3939H7.00044L7.00044 17.3927L6.25044 17.3939ZM7.40393 14.9968C7.54021 14.6056 7.33359 14.1781 6.94243 14.0418C6.55128 13.9055 6.12371 14.1121 5.98744 14.5033L6.69568 14.75L7.40393 14.9968ZM25.3048 13.9999C24.8906 13.9999 24.5548 14.3357 24.5548 14.7499C24.5548 15.1642 24.8906 15.4999 25.3048 15.4999V14.7499V13.9999ZM26.3789 14.7499V15.4999C26.3847 15.4999 26.3905 15.4999 26.3963 15.4997L26.3789 14.7499ZM29 17.2492H29.75C29.75 17.2431 29.75 17.2369 29.7498 17.2308L29 17.2492ZM29 20.3757L29.7498 20.394C29.75 20.3879 29.75 20.3818 29.75 20.3757H29ZM26.3789 22.8749L26.3963 22.1251C26.3905 22.125 26.3847 22.1249 26.3789 22.1249V22.8749ZM25.3048 22.1249C24.8906 22.1249 24.5548 22.4607 24.5548 22.8749C24.5548 23.2891 24.8906 23.6249 25.3048 23.6249V22.8749V22.1249ZM12.75 22.9374C12.3358 22.9374 12 23.2732 12 23.6874C12 24.1016 12.3358 24.4374 12.75 24.4374V23.6874V22.9374ZM19.2499 24.4374C19.6642 24.4374 19.9999 24.1016 19.9999 23.6874C19.9999 23.2732 19.6642 22.9374 19.2499 22.9374V23.6874V24.4374ZM16.0003 5H15.2503V9.87496H16.0003H16.7503V5H16.0003ZM6.69568 22.875L7.40393 22.6282C7.13558 21.858 6.99917 21.0479 7.00044 20.2323L6.25044 20.2311L5.50044 20.2299C5.4989 21.2144 5.66355 22.1921 5.98744 23.1217L6.69568 22.875ZM6.25044 20.2311H7.00044V17.3939H6.25044H5.50044V20.2311H6.25044ZM6.25044 17.3939L7.00044 17.3927C6.99917 16.5771 7.13558 15.767 7.40393 14.9968L6.69568 14.75L5.98744 14.5033C5.66355 15.4329 5.4989 16.4106 5.50044 17.3951L6.25044 17.3939ZM25.3048 14.7499V15.4999H26.3789V14.7499V13.9999H25.3048V14.7499ZM26.3789 14.7499L26.3963 15.4997C27.3961 15.4766 28.2258 16.2677 28.2503 17.2675L29 17.2492L29.7498 17.2308C29.7051 15.4036 28.1889 13.9579 26.3616 14.0001L26.3789 14.7499ZM29 17.2492H28.25V20.3757H29H29.75V17.2492H29ZM29 20.3757L28.2503 20.3573C28.2258 21.3571 27.3961 22.1482 26.3963 22.1251L26.3789 22.8749L26.3616 23.6247C28.1889 23.667 29.7051 22.2212 29.7498 20.394L29 20.3757ZM26.3789 22.8749V22.1249H25.3048V22.8749V23.6249H26.3789V22.8749ZM12.75 23.6874V24.4374H19.2499V23.6874V22.9374H12.75V23.6874Z" fill="#0A102F"/>
</svg>
