<svg width="32" height="32" viewBox="0 0 32 32" fill="none" xmlns="http://www.w3.org/2000/svg">
<path fill-rule="evenodd" clip-rule="evenodd" d="M28 10.8571V21.1429C28 24.93 24.93 28 21.1429 28H10.8571C7.07005 28 4 24.93 4 21.1429V10.8571C4 7.07005 7.07005 4 10.8571 4H21.1429C24.93 4 28 7.07005 28 10.8571Z" stroke="#0A102F" stroke-width="1.5" stroke-linecap="round" stroke-linejoin="round"/>
<path fill-rule="evenodd" clip-rule="evenodd" d="M14.9713 16.2006L18.2285 18.6555C18.4417 18.8069 18.5683 19.0522 18.5683 19.3138C18.5683 19.5753 18.4417 19.8206 18.2285 19.972L14.9713 22.6566C14.6964 22.8712 14.3265 22.9194 14.0057 22.7825C13.6849 22.6456 13.4638 22.3453 13.4285 21.9983V16.8555C13.465 16.5091 13.6865 16.2098 14.0071 16.0737C14.3277 15.9377 14.6968 15.9862 14.9713 16.2006V16.2006Z" stroke="#052080" stroke-width="1.5" stroke-linecap="round" stroke-linejoin="round"/>
<path d="M27.9999 11.6071C28.4141 11.6071 28.7499 11.2713 28.7499 10.8571C28.7499 10.4429 28.4141 10.1071 27.9999 10.1071V10.8571V11.6071ZM15.9999 10.1071C15.5857 10.1071 15.2499 10.4429 15.2499 10.8571C15.2499 11.2713 15.5857 11.6071 15.9999 11.6071V10.8571V10.1071ZM4 10.1071C3.58579 10.1071 3.25 10.4429 3.25 10.8571C3.25 11.2713 3.58579 11.6071 4 11.6071V10.8571V10.1071ZM16 11.6071C16.4142 11.6071 16.75 11.2713 16.75 10.8571C16.75 10.4429 16.4142 10.1071 16 10.1071V10.8571V11.6071ZM15.2501 10.8571C15.2501 11.2714 15.5859 11.6071 16.0001 11.6071C16.4143 11.6071 16.7501 11.2714 16.7501 10.8571H16.0001H15.2501ZM16.7501 4C16.7501 3.58579 16.4143 3.25 16.0001 3.25C15.5859 3.25 15.2501 3.58579 15.2501 4H16.0001H16.7501ZM27.9999 10.8571V10.1071H15.9999V10.8571V11.6071H27.9999V10.8571ZM4 10.8571V11.6071H16V10.8571V10.1071H4V10.8571ZM16.0001 10.8571H16.7501V4H16.0001H15.2501V10.8571H16.0001Z" fill="#0A102F"/>
</svg>
