<svg width="32" height="32" viewBox="0 0 32 32" fill="none" xmlns="http://www.w3.org/2000/svg">
<path fill-rule="evenodd" clip-rule="evenodd" d="M11.8928 4.00001H20.7264C20.8181 4.00001 20.9093 4.00588 21 4.01761C24.5957 4.26907 27.3878 7.25312 27.4 10.8576V21.144C27.3867 24.9393 24.3025 28.0071 20.5072 28H11.8928C8.09681 28.0071 5.01235 24.9384 5 21.1424V10.8576C5.01235 7.06164 8.09681 3.99293 11.8928 4.00001Z" stroke="#0A102F" stroke-width="1.5" stroke-linecap="round" stroke-linejoin="round"/>
<path d="M27.3998 11.6076C27.814 11.6076 28.1498 11.2718 28.1498 10.8576C28.1498 10.4434 27.814 10.1076 27.3998 10.1076V10.8576V11.6076ZM20.9998 10.8576H20.2498C20.2498 11.2718 20.5856 11.6076 20.9998 11.6076V10.8576ZM21.7498 4.01758C21.7498 3.60336 21.414 3.26758 20.9998 3.26758C20.5856 3.26758 20.2498 3.60336 20.2498 4.01758H20.9998H21.7498ZM19.3999 17.55C19.8141 17.55 20.1499 17.2142 20.1499 16.8C20.1499 16.3858 19.8141 16.05 19.3999 16.05V16.8V17.55ZM9.79993 16.05C9.38572 16.05 9.04993 16.3858 9.04993 16.8C9.04993 17.2142 9.38572 17.55 9.79993 17.55V16.8V16.05ZM14.5999 12.75C15.0141 12.75 15.3499 12.4142 15.3499 12C15.3499 11.5858 15.0141 11.25 14.5999 11.25V12V12.75ZM9.79993 11.25C9.38572 11.25 9.04993 11.5858 9.04993 12C9.04993 12.4142 9.38572 12.75 9.79993 12.75V12V11.25ZM20.9999 22.35C21.4141 22.35 21.7499 22.0142 21.7499 21.6C21.7499 21.1858 21.4141 20.85 20.9999 20.85V21.6V22.35ZM9.79993 20.85C9.38572 20.85 9.04993 21.1858 9.04993 21.6C9.04993 22.0142 9.38572 22.35 9.79993 22.35V21.6V20.85ZM27.3998 10.8576V10.1076H20.9998V10.8576V11.6076H27.3998V10.8576ZM20.9998 10.8576H21.7498V4.01758H20.9998H20.2498V10.8576H20.9998ZM19.3999 16.8V16.05H9.79993V16.8V17.55H19.3999V16.8ZM14.5999 12V11.25H9.79993V12V12.75H14.5999V12ZM20.9999 21.6V20.85H9.79993V21.6V22.35H20.9999V21.6Z" fill="#0A102F"/>
</svg>
