<svg viewBox="0 0 336 165" fill="none" xmlns="http://www.w3.org/2000/svg">
<path d="M151.881 80.3314H166.932C165.836 76.9288 163.011 74.7383 159.378 74.7383C155.918 74.7383 152.976 76.9288 151.881 80.3314ZM171.43 73.4107C174.429 77.0447 175.525 81.3121 174.717 86.2717H151.765C152.862 89.904 155.918 92.2685 159.898 92.2685C163.299 92.2685 165.723 90.8852 167.279 88.1173L173.679 91.0003C170.969 95.8443 165.894 98.9578 159.667 98.9578C155.111 98.9578 151.361 97.4586 148.306 94.5179C145.249 91.5768 143.75 87.8859 143.75 83.5026C143.75 79.1205 145.249 75.43 148.248 72.4889C151.246 69.5478 154.939 68.0486 159.378 68.0486C164.395 68.0486 168.374 69.8357 171.43 73.4107" fill="#1E4078"/>
<path d="M194.555 91.8653C196.804 91.8653 198.649 91.0582 200.149 89.4435C201.646 87.8866 202.398 85.8685 202.398 83.5036C202.398 81.1391 201.646 79.1211 200.149 77.5642C198.649 76.0064 196.804 75.1992 194.555 75.1992C192.305 75.1992 190.459 76.0064 188.96 77.5642C187.462 79.1788 186.711 81.1391 186.711 83.5036C186.711 85.8685 187.462 87.8866 188.96 89.4435C190.459 91.0582 192.305 91.8653 194.555 91.8653ZM206.376 72.4883C209.087 75.4306 210.47 79.1211 210.47 83.5036C210.47 87.8866 209.087 91.577 206.376 94.5173C203.666 97.4596 200.263 98.9584 196.169 98.9584C192.363 98.9584 189.19 97.5751 186.711 94.8642V109.916H178.926V68.6254H186.711V72.1427C189.19 69.4326 192.363 68.0484 196.169 68.0484C200.263 68.0484 203.666 69.548 206.376 72.4883" fill="#1E4078"/>
<path d="M222.174 87.0214L236.36 68.6251H243.915V98.3824H236.129V79.9861L221.944 98.3824H214.389V68.6251H222.174V87.0214Z" fill="#1E4078"/>
<path d="M257.929 98.3821H250.143V68.6253H278.633V98.3821H270.846V75.4882H257.929V98.3821Z" fill="#1E4078"/>
<path d="M83.9643 44.9731L101.897 66.89C101.897 66.89 108.196 59.1978 108.205 59.1792C109.782 57.2363 109.728 54.485 108.181 52.5964L103.512 46.8901C102.521 45.6787 101.038 44.9731 99.4726 44.9731H83.9643ZM57 44.9731L83.9227 77.8862L92.9162 66.904L74.9759 44.9731H57Z" fill="url(#paint0_linear)"/>
<path d="M85.4365 120H100.943C102.508 120 103.991 119.297 104.981 118.089L130.671 86.6996C132.246 84.7775 132.246 82.0101 130.671 80.0889L124.386 72.4065L85.4365 120Z" fill="url(#paint1_linear)"/>
<path d="M108.204 59.1791C108.194 59.1977 101.895 66.8899 101.895 66.8899L101.892 66.8929L58.4287 120H76.4174L117.173 70.2038C118.748 68.2808 118.748 65.5143 117.173 63.5917L108.179 52.5964C109.726 54.4849 109.78 57.2362 108.204 59.1791" fill="url(#paint2_linear)"/>
<defs>
<linearGradient id="paint0_linear" x1="68.4796" y1="46.1428" x2="104.629" y2="83.202" gradientUnits="userSpaceOnUse">
<stop stop-color="#F6B960"/>
<stop offset="1" stop-color="#E7362F"/>
</linearGradient>
<linearGradient id="paint1_linear" x1="124.666" y1="75.3147" x2="88.8905" y2="122.538" gradientUnits="userSpaceOnUse">
<stop stop-color="#F6B960"/>
<stop offset="1" stop-color="#E7362F"/>
</linearGradient>
<linearGradient id="paint2_linear" x1="111.953" y1="55.4561" x2="61.3691" y2="122.227" gradientUnits="userSpaceOnUse">
<stop stop-color="#F6B960"/>
<stop offset="1" stop-color="#E7362F"/>
</linearGradient>
</defs>
</svg>
